PathFileType	4	(X/Y/Z)	56_1_32_p1_0-167_filt_butterworth.trc
DataRate	CameraRate	NumFrames	NumMarkers	Units	OrigDataRate	OrigDataStartFrame	OrigNumFrames
40.0	40.0	6	27	m	40.0	125	167
Frame#	Time	RHip			RKnee			RAnkle			RBigToe			RSmallToe			RHeel			LHip			LKnee			LAnkle			LBigToe			LSmallToe			LHeel			Neck			Head			Nose			RShoulder			RElbow			RWrist			RThumb			RIndex			RPinky			LShoulder			LElbow			LWrist			LThumb			LIndex			LPinky			
		X1	Y1	Z1	X2	Y2	Z2	X3	Y3	Z3	X4	Y4	Z4	X5	Y5	Z5	X6	Y6	Z6	X7	Y7	Z7	X8	Y8	Z8	X9	Y9	Z9	X10	Y10	Z10	X11	Y11	Z11	X12	Y12	Z12	X13	Y13	Z13	X14	Y14	Z14	X15	Y15	Z15	X16	Y16	Z16	X17	Y17	Z17	X18	Y18	Z18	X19	Y19	Z19	X20	Y20	Z20	X21	Y21	Z21	X22	Y22	Z22	X23	Y23	Z23	X24	Y24	Z24	X25	Y25	Z25	X26	Y26	Z26	X27	Y27	Z27	
125	3.125	0.48200131771671184	0.4057901663846627	0.9694661448248285	0.49492340507886046	0.04194868462753076	0.9644886613937473	0.49596931349471785	-0.37403768740360066	0.9688978294895602	0.4255306197139759	-0.4071240580586929	0.7964303072493558	0.5003633692956856	-0.4100248902109736	0.7913088759125015	0.496381358235521	-0.4383614273042626	1.0354398608601345	0.2716241944134767	0.3827854385881297	1.044703073058022	0.30699863693136453	0.02294528498005466	1.0408962790817515	0.31813908443735883	-0.362207258248373	1.030264823748122	0.24344123959532946	-0.38185912085436946	0.8232876679076248	0.2194771140491637	-0.4080496925793925	0.8935752392678795	0.34333462913083596	-0.41667301257896744	1.0561350014701119	0.3533142586757091	0.9772735306851322	1.0260989660383841	0.33768539659271607	1.230224339333028	1.003129134770861	0.3249396536817658	1.0968364392880499	0.9477591387412381	0.5130514241810675	0.9043443193045683	0.9632445517455731	0.5186330558472063	0.6598506210335615	0.8437809491894046	0.39455080865647696	0.4688628948913376	0.7977821494663091	0.3138057918242329	0.4162926084940991	0.7812172808468295	0.3057631419338673	0.370378331548497	0.8022129445606572	0.3173724668446384	0.3554480672368627	0.8191204442187892	0.19183017592755303	0.9048906823477322	1.0606598084051955	0.1424541927182576	0.6357861475933216	0.9951788462851724	0.27923889369965726	0.4969880900288428	0.8277387121891927	0.3498945611867561	0.4864996833636639	0.7464591164800963	0.3682813837916337	0.440534681355609	0.7431315497017061	0.3476277015525548	0.39290302653484765	0.7857430528085569	
126	3.15	0.48147158113979355	0.4068421854131377	0.9695655080552208	0.4951293188654182	0.04042827569385238	0.964359620422981	0.4959611657212497	-0.3740661620416004	0.9690986918925294	0.4256499922027424	-0.40805906666739794	0.7963354316436845	0.5012862769019814	-0.4107426181885768	0.7912833789211923	0.4972493000950042	-0.4393696865327254	1.0366709399044136	0.27172323304713936	0.38412565886157785	1.0436270709183593	0.30718457188988246	0.02278516535603725	1.040822802634312	0.3181207989935069	-0.3619525333905165	1.0301584319802186	0.24475383991787192	-0.3825597345445919	0.8252511359708925	0.21957555169113405	-0.4074410888024929	0.8936401837210592	0.34326965603383996	-0.41609356656373575	1.0558133099569273	0.35327187108776636	0.9780471479323892	1.0238389977354236	0.33837889852266545	1.2313233089524838	1.0034941109144841	0.3234881004412927	1.0979922442940198	0.9458363545725863	0.5138175668894035	0.9053597341354431	0.9644538164791421	0.5212822126067829	0.6661992062308644	0.8460656035071414	0.39167814519193916	0.48458290232085066	0.800737494891339	0.31378074737616163	0.43153405852790905	0.7951250027228349	0.3019171002485996	0.38318416536866884	0.809590647674697	0.3044669568418392	0.36884758644725785	0.8191107606146424	0.19371743318298065	0.904212238329633	1.0641084324542556	0.14268945498982333	0.6361487722513535	0.9957902173938559	0.2868250232723296	0.5077809780002848	0.832909717112404	0.3588687080380934	0.499901297166091	0.7595918132853641	0.38063125964110267	0.449303277084129	0.7552735186281456	0.35625359767245046	0.4082748188654679	0.7819343552611462	
127	3.175	0.4806705229068944	0.4080351486518953	0.9694425055100162	0.4951625915151331	0.039045459358133805	0.9640802868459507	0.49593712542434754	-0.3744510603508249	0.9693563436483857	0.42602372903877817	-0.40900937899230116	0.796425711689344	0.5025847689003888	-0.411332195518689	0.7921985283070924	0.4977831000860705	-0.4403294847120848	1.0374694643552362	0.2719187951485604	0.3853488662524408	1.042632972041667	0.30731902750638984	0.022418837904095767	1.040744040589967	0.31798715802970823	-0.3618643223996624	1.030032888087739	0.24629246543506012	-0.38365261778279547	0.826989297718539	0.21962604159408666	-0.4072615858149574	0.8935112963879661	0.3432207529188002	-0.41578604113995987	1.0554552511134194	0.3531866470951177	0.9790525601794449	1.022511313914572	0.33921931536686734	1.232508857025731	1.003920939511827	0.3221854243711414	1.0999916981503002	0.9447625845532159	0.5143417558649821	0.9068537526518521	0.9654723849324991	0.5242467170159548	0.6710211521945726	0.8480972751690108	0.3896212994694911	0.49690375220491	0.8027100189314775	0.31423571080761264	0.4417950294700397	0.8103218267054841	0.2992158888641111	0.3908848269550815	0.8191290000192769	0.2979904003130698	0.37411380936658534	0.824411781610607	0.19500676489294333	0.9041164818762233	1.0662435271461794	0.14285045160540252	0.6369509116942236	0.9959005192194916	0.2903411026502561	0.5177872145572425	0.8370918262294356	0.36578258653266005	0.5101622329229377	0.7712220082614747	0.38738213358803775	0.45591015401409696	0.7679748618075664	0.3592180215653281	0.4241082278266249	0.7782556204652891	
128	3.2	0.48005819061936333	0.40927245777053806	0.9695347214964196	0.4951450081606317	0.037921643474434	0.9635483451731846	0.49621138449376523	-0.3751892934779852	0.9696645435387675	0.4259613515990207	-0.40916429574873436	0.7961725679057282	0.5033440896733842	-0.4113000670215761	0.7929657132068357	0.4982246302350929	-0.4414802809479838	1.0381341928929686	0.2722687881250902	0.3863483649943124	1.042162681425944	0.30738370418672817	0.021874873952149265	1.040603229248245	0.31784725614922915	-0.3619090136220545	1.0299200402765871	0.24796177418321877	-0.38568118629577613	0.8293234155225053	0.21963301064515378	-0.4073216723112319	0.8934099524008053	0.3432012452289676	-0.41578229813084744	1.05520460757155	0.35309942682556583	0.9801877656520224	1.0224946676519955	0.340110201940094	1.2338499368316724	1.0044193113386046	0.3211972683669108	1.1025374297081838	0.9445169588497817	0.5149045188271062	0.9081685516713388	0.9665296043942271	0.5277439753415909	0.6738254887025286	0.8491778862039225	0.38773751819186053	0.5050993125744785	0.8025074015214285	0.31399261763286046	0.44944530347554656	0.8222597389079487	0.2963636622715376	0.3954148001499276	0.8271970803350981	0.2965817162136033	0.3734691810739889	0.8318414416785237	0.1957293136703874	0.9042985080833216	1.0674401262922961	0.1430837419245674	0.6375666521453605	0.9964287565714771	0.2905389980627741	0.5257570377022535	0.8386583671799743	0.3684108088283604	0.5187572553974581	0.7765760499477233	0.38764184446535116	0.46176949507462073	0.7750708958772974	0.3582506977656864	0.4374759991314404	0.7760920745541116	
129	3.225	0.480010749186273	0.41020062193847256	0.9701549933142016	0.4951126225106402	0.03692689193499249	0.9629505503063633	0.49676836935117746	-0.3759534076449526	0.9699093051155504	0.425089320282619	-0.40801846266928443	0.7953456555896619	0.5030202246151071	-0.41048032037102683	0.7926244103745826	0.49873256930533716	-0.44274218685031586	1.0386890206827901	0.27280483062295363	0.387142769472758	1.0421715997242513	0.30741891770406127	0.021268910027547716	1.0403711927640664	0.3178060974543765	-0.36204508772621224	1.0299031911522305	0.24960889965759264	-0.38815985356332594	0.8320261093041672	0.21960523912097168	-0.4074536126279333	0.8934137617329173	0.3431991919720265	-0.41613371272987776	1.0553600513814103	0.3530152323030532	0.9814039567430238	1.0232505192052295	0.34095459361619307	1.235329605743241	1.0049570869693234	0.3210277540679558	1.1050298586302245	0.9452532863746139	0.5157843332941144	0.9085480747256629	0.9677990830916283	0.5313084474291011	0.674005812120106	0.8495321424066209	0.38551131606124456	0.5090767371332998	0.8005275026914785	0.3122546476430257	0.45580829135667467	0.829120642098492	0.29302600097540754	0.3992330449797492	0.8320949056781556	0.2969797515620426	0.3721133735805356	0.8350773959506035	0.1960582667998952	0.9048054125118432	1.0681052616659468	0.1433585030692902	0.6376597567017167	0.9980516495179514	0.28875096795863875	0.5304355642986381	0.8383965554910732	0.36622873835257785	0.5254943744687872	0.7765724650325906	0.3811603990562543	0.46688852977078743	0.7747000237208139	0.35491691321221386	0.44648134396771455	0.7745952255184456	
130	3.25	0.48034135230949865	0.41030175472093955	0.9710902059093127	0.49485597688803484	0.03619676251712334	0.9623487967583679	0.49727546924172217	-0.3763529917689537	0.9700497467056173	0.42362023636922663	-0.40592358354884384	0.7940553976880393	0.5017917288444942	-0.40911365498756014	0.7913094779630142	0.4991369926193665	-0.4437350998188902	1.0389154701504042	0.27355593565649305	0.38744105849038624	1.0421000589164218	0.30744292974200804	0.020780691372440707	1.0400975386544213	0.3178675275072262	-0.36224545372965195	1.0300403462553696	0.2506654791522745	-0.3897485239545258	0.8337869400761051	0.21957355642285187	-0.40750273644707036	0.8934108173077769	0.34320902260306124	-0.41681346426748267	1.0559335585534853	0.3529057066286154	0.9827673280340998	1.0238121790345003	0.341656405302764	1.2366897895959121	1.0054564101974732	0.32173482740779075	1.10705932815213	0.9468671465045786	0.5171920414989613	0.9076669523509178	0.9694533642178877	0.5341712471706016	0.6717141211817892	0.8501073232366609	0.3827282114985924	0.510031223614063	0.7979922035663577	0.30933892334198887	0.46090473503979923	0.8317634065436301	0.28953584437921065	0.4032674239445133	0.8352819901138882	0.2973282241988797	0.3720159799056093	0.8341503698171109	0.19603263876651417	0.9055895939925669	1.0681778081898194	0.14351506400356098	0.637679897531831	1.0005722976102298	0.2865903011038994	0.5323244461752539	0.8377175946457394	0.36047034127027355	0.5302058030240939	0.773181038275175	0.37021016684545327	0.47132872231489886	0.7691139958227016	0.3499446117289293	0.45224178534447085	0.7729103171958094	
